<svg width="48" height="48" viewBox="0 0 48 48" fill="none" xmlns="http://www.w3.org/2000/svg">
<path d="M44 16.0001V24.0001M20.5 11.0001H13.6C10.2397 11.0001 8.55952 11.0001 7.27605 11.654C6.14708 12.2293 5.2292 13.1472 4.65396 14.2761C4 15.5596 4 17.2398 4 20.6001L4 23.0001C4 24.8638 4 25.7957 4.30449 26.5308C4.71046 27.5109 5.48916 28.2896 6.46927 28.6956C7.20435 29.0001 8.13624 29.0001 10 29.0001V37.5001C10 37.9644 10 38.1966 10.0193 38.3921C10.2063 40.2912 11.7088 41.7938 13.6079 41.9808C13.8035 42.0001 14.0357 42.0001 14.5 42.0001C14.9643 42.0001 15.1965 42.0001 15.3921 41.9808C17.2912 41.7938 18.7937 40.2912 18.9807 38.3921C19 38.1966 19 37.9644 19 37.5001V29.0001H20.5C24.0329 29.0001 28.3545 30.8938 31.6886 32.7114C33.6337 33.7717 34.6062 34.3018 35.2431 34.2238C35.8338 34.1515 36.2804 33.8863 36.6266 33.4023C37 32.8804 37 31.8361 37 29.7475V10.2526C37 8.16406 37 7.11977 36.6266 6.59785C36.2804 6.11387 35.8338 5.84867 35.2431 5.77633C34.6062 5.69831 33.6337 6.22847 31.6886 7.28878C28.3545 9.10629 24.0329 11.0001 20.5 11.0001Z" stroke="#212B36" stroke-width="2" stroke-linecap="round" stroke-linejoin="round"/>
</svg>
