<svg width="604" height="604" viewBox="0 0 604 604" fill="none" xmlns="http://www.w3.org/2000/svg">
<mask id="mask0_2846_11466" style="mask-type:luminance" maskUnits="userSpaceOnUse" x="0" y="0" width="604" height="604">
<path d="M0.923523 0H604V604H0.923523V0Z" fill="white"/>
</mask>
<g mask="url(#mask0_2846_11466)">
<path d="M460.376 129.218H352.158C349.839 129.218 347.743 130.602 346.829 132.737L337.478 154.592V95.2649C337.478 92.0584 340.074 89.459 343.275 89.459H460.376C463.578 89.459 466.173 92.0584 466.173 95.2649V123.412C466.173 126.619 463.578 129.218 460.376 129.218Z" fill="white"/>
<path d="M460.376 129.218H352.158C349.839 129.218 347.743 130.602 346.829 132.737L337.478 154.592V95.2649C337.478 92.0584 340.074 89.459 343.275 89.459H460.376C463.578 89.459 466.173 92.0584 466.173 95.2649V123.412C466.173 126.619 463.578 129.218 460.376 129.218Z" stroke="#232323" stroke-width="1.40535" stroke-linecap="round" stroke-linejoin="round"/>
<path d="M351.507 100.955H431.971" stroke="#232323" stroke-width="1.40535" stroke-linecap="round" stroke-linejoin="round"/>
<path d="M351.507 112.799H406" stroke="#232323" stroke-width="1.40535" stroke-linecap="round" stroke-linejoin="round"/>
<path d="M451.373 106.075L445.26 97.6637C445.194 97.5731 445.215 97.4461 445.305 97.3801C445.339 97.3553 445.38 97.3416 445.423 97.3414L449.035 97.3337C449.257 97.3332 449.465 97.4391 449.596 97.6189L451.567 100.329C451.659 100.456 451.836 100.484 451.962 100.392C451.98 100.378 451.997 100.362 452.012 100.344L456.28 95.235C456.434 95.0515 456.661 94.9456 456.9 94.9463L460.597 94.9584C460.731 94.9591 460.84 95.0687 460.839 95.2031C460.839 95.2598 460.819 95.3146 460.783 95.3583L451.82 106.09C451.72 106.21 451.542 106.227 451.422 106.127C451.403 106.112 451.387 106.094 451.373 106.075Z" fill="#205993"/>
<path d="M387.443 148.604H495.663C497.982 148.604 500.078 149.989 500.99 152.124L510.341 173.977V114.651C510.341 111.444 507.746 108.845 504.544 108.845H387.443C384.242 108.845 381.646 111.444 381.646 114.651V142.798C381.647 146.004 384.242 148.604 387.443 148.604Z" fill="white"/>
<path d="M387.443 148.604H495.663C497.982 148.604 500.078 149.989 500.99 152.124L510.341 173.977V114.651C510.341 111.444 507.746 108.845 504.544 108.845H387.443C384.242 108.845 381.646 111.444 381.646 114.651V142.798C381.647 146.004 384.242 148.604 387.443 148.604Z" stroke="#232323" stroke-width="1.40535" stroke-linecap="round" stroke-linejoin="round"/>
<path d="M393.356 119.75C393.356 119.75 449.215 119.75 467.85 119.75" stroke="#232323" stroke-width="1.40535" stroke-linecap="round" stroke-linejoin="round"/>
<path d="M393.356 131.594C393.356 131.594 417.568 131.594 433.714 131.594" stroke="#232323" stroke-width="1.40535" stroke-linecap="round" stroke-linejoin="round"/>
</g>
<path d="M172.763 530.505C172.763 532.276 162.971 533.712 150.891 533.712C138.812 533.712 129.02 532.276 129.02 530.505C129.02 528.734 138.812 527.298 150.891 527.298C162.971 527.298 172.763 528.734 172.763 530.505Z" fill="#232323"/>
<path d="M167.434 430.484C167.434 455.785 167.434 499.423 197.819 507.779" stroke="#232323" stroke-width="2.81152" stroke-linecap="round" stroke-linejoin="round"/>
<path d="M160.475 430.484C160.475 455.785 160.475 499.423 130.09 507.779" stroke="#232323" stroke-width="2.81152" stroke-linecap="round" stroke-linejoin="round"/>
<path d="M150.948 490.864H176.96" stroke="#232323" stroke-width="2.81152" stroke-linecap="round" stroke-linejoin="round"/>
<path d="M194.298 506.065C201.656 506.065 207.621 512.039 207.621 519.408C207.621 526.777 201.656 532.751 194.298 532.751C186.941 532.751 180.976 526.777 180.976 519.408C180.976 512.039 186.941 506.065 194.298 506.065Z" fill="#232323"/>
<path d="M194.298 510.015C199.478 510.015 203.677 514.22 203.677 519.408C203.677 524.596 199.478 528.802 194.298 528.802C189.118 528.802 184.919 524.596 184.919 519.408C184.919 514.22 189.118 510.015 194.298 510.015Z" fill="white"/>
<path d="M133.177 506.065C140.534 506.065 146.499 512.039 146.499 519.408C146.499 526.777 140.534 532.751 133.177 532.751C125.819 532.751 119.854 526.777 119.854 519.408C119.854 512.039 125.819 506.065 133.177 506.065Z" fill="#232323"/>
<path d="M133.177 510.015C138.357 510.015 142.556 514.22 142.556 519.408C142.556 524.596 138.357 528.802 133.177 528.802C127.997 528.802 123.798 524.596 123.798 519.408C123.798 514.22 127.997 510.015 133.177 510.015Z" fill="white"/>
<path d="M85.6514 330.147C92.5814 346.089 101.174 383.383 106.199 413.754" stroke="#232323" stroke-width="2.81152" stroke-linecap="round" stroke-linejoin="round"/>
<path d="M97.9621 326.185C98.0024 327 98.0174 327.82 98.0303 328.645C98.0276 329.061 98.0317 329.473 98.0222 329.892C98.0153 330.315 98.0003 330.719 97.9839 331.18C97.8206 335.693 94.2975 339.531 89.9039 340.35C84.4352 341.371 80.4986 337.4 78.7754 332.567C75.1128 322.294 72.1032 311.819 68.2534 301.57C65.1166 293.217 61.9307 284.891 58.0489 276.842C55.7913 272.16 52.6862 266.182 55.8333 261.23C57.2729 258.951 59.5971 257.378 62.2453 256.89C65.0101 256.414 67.8446 257.165 70.0106 258.949C70.7374 259.553 71.4313 260.197 72.1184 260.847C72.7591 261.494 73.398 262.151 74.0191 262.824C74.6186 263.488 75.1977 264.163 75.7729 264.849C76.3363 265.532 76.8649 266.218 77.4011 266.914C79.4423 269.635 81.3093 272.482 82.9911 275.439C86.2003 281.135 88.9056 287.102 91.076 293.27C93.2381 299.31 94.9443 305.505 96.1803 311.801C96.7932 314.943 97.2753 318.116 97.6059 321.328C97.769 322.936 97.8953 324.551 97.9621 326.185Z" fill="white"/>
<path d="M97.9621 326.185C98.0024 327 98.0174 327.82 98.0303 328.645C98.0276 329.061 98.0317 329.473 98.0222 329.892C98.0153 330.315 98.0003 330.719 97.9839 331.18C97.8206 335.693 94.2975 339.531 89.9039 340.35C84.4352 341.371 80.4986 337.4 78.7754 332.567C75.1128 322.294 72.1032 311.819 68.2534 301.57C65.1166 293.217 61.9307 284.891 58.0489 276.842C55.7913 272.16 52.6862 266.182 55.8333 261.23C57.2729 258.951 59.5971 257.378 62.2453 256.89C65.0101 256.414 67.8446 257.165 70.0106 258.949C70.7374 259.553 71.4313 260.197 72.1184 260.847C72.7591 261.494 73.398 262.151 74.0191 262.824C74.6186 263.488 75.1977 264.163 75.7729 264.849C76.3363 265.532 76.8649 266.218 77.4011 266.914C79.4423 269.635 81.3093 272.482 82.9911 275.439C86.2003 281.135 88.9056 287.102 91.076 293.27C93.2381 299.31 94.9443 305.505 96.1803 311.801C96.7932 314.943 97.2753 318.116 97.6059 321.328C97.769 322.936 97.8953 324.551 97.9621 326.185Z" stroke="#232323" stroke-width="1.96806"/>
<path d="M154.782 430.481C154.676 436.289 153.517 439.774 142.383 439.077" stroke="#232323" stroke-width="1.40576" stroke-linecap="round" stroke-linejoin="round"/>
<path d="M133.337 439.077H143.775" stroke="#232323" stroke-width="8.43455" stroke-linecap="round" stroke-linejoin="round"/>
<path d="M112.794 400.608C113.877 400.725 114.942 400.881 116.007 401.03C117.08 401.166 118.146 401.31 119.208 401.461C120.281 401.584 121.342 401.737 122.407 401.874C123.479 401.995 124.541 402.139 125.608 402.268C129.875 402.779 134.147 403.233 138.427 403.595C146.984 404.338 155.563 404.813 164.116 404.949C172.668 405.085 181.19 404.896 189.584 404.298C193.782 404.01 197.936 403.597 202.047 403.06L203.59 402.866C204.1 402.793 204.603 402.706 205.115 402.638C205.624 402.563 206.142 402.502 206.646 402.415C207.15 402.329 207.654 402.248 208.162 402.169L208.924 402.049C209.179 402.01 209.424 401.956 209.676 401.915L211.184 401.65C211.697 401.577 212.181 401.465 212.683 401.373C213.182 401.279 213.686 401.19 214.193 401.107L214.989 400.976C220.535 400.065 225.769 403.829 226.679 409.384C227.366 413.572 225.39 417.747 221.718 419.866C221.155 420.191 220.587 420.511 220.015 420.826C219.443 421.139 218.866 421.458 218.289 421.739C217.129 422.301 215.962 422.897 214.784 423.389C214.196 423.646 213.606 423.904 213.013 424.153C212.419 424.4 211.827 424.622 211.232 424.858C210.637 425.094 210.038 425.314 209.44 425.537L207.643 426.161C202.878 427.758 198.012 429.031 193.076 429.971C188.214 430.898 183.304 431.555 178.37 431.939C173.463 432.329 168.561 432.478 163.664 432.386C153.885 432.23 144.142 431.158 134.562 429.185C129.761 428.188 125.017 426.932 120.352 425.423C119.186 425.025 118.019 424.633 116.86 424.222C115.704 423.79 114.549 423.358 113.405 422.904C112.258 422.44 111.121 421.949 109.988 421.461C108.859 420.941 107.735 420.416 106.627 419.858C101.588 417.322 99.5567 411.174 102.089 406.128C103.997 402.326 108.056 400.105 112.281 400.551L112.794 400.608Z" fill="white"/>
<path d="M112.794 400.608C113.877 400.725 114.942 400.881 116.007 401.03C117.08 401.166 118.146 401.31 119.208 401.461C120.281 401.584 121.342 401.737 122.407 401.874C123.479 401.995 124.541 402.139 125.608 402.268C129.875 402.779 134.147 403.233 138.427 403.595C146.984 404.338 155.563 404.813 164.116 404.949C172.668 405.085 181.19 404.896 189.584 404.298C193.782 404.01 197.936 403.597 202.047 403.06L203.59 402.866C204.1 402.793 204.603 402.706 205.115 402.638C205.624 402.563 206.142 402.502 206.646 402.415C207.15 402.329 207.654 402.248 208.162 402.169L208.924 402.049C209.179 402.01 209.424 401.956 209.676 401.915L211.184 401.65C211.697 401.577 212.181 401.465 212.683 401.373C213.182 401.279 213.686 401.19 214.193 401.107L214.989 400.976C220.535 400.065 225.769 403.829 226.679 409.384C227.366 413.572 225.39 417.747 221.718 419.866C221.155 420.191 220.587 420.511 220.015 420.826C219.443 421.139 218.866 421.458 218.289 421.739C217.129 422.301 215.962 422.897 214.784 423.389C214.196 423.646 213.606 423.904 213.013 424.153C212.419 424.4 211.827 424.622 211.232 424.858C210.637 425.094 210.038 425.314 209.44 425.537L207.643 426.161C202.878 427.758 198.012 429.031 193.076 429.971C188.214 430.898 183.304 431.555 178.37 431.939C173.463 432.329 168.561 432.478 163.664 432.386C153.885 432.23 144.142 431.158 134.562 429.185C129.761 428.188 125.017 426.932 120.352 425.423C119.186 425.025 118.019 424.633 116.86 424.222C115.704 423.79 114.549 423.358 113.405 422.904C112.258 422.44 111.121 421.949 109.988 421.461C108.859 420.941 107.735 420.416 106.627 419.858C101.588 417.322 99.5567 411.174 102.089 406.128C103.997 402.326 108.056 400.105 112.281 400.551L112.794 400.608Z" stroke="#232323" stroke-width="1.96806"/>
<path d="M405.215 329.148H504.954C505.274 329.148 505.534 329.409 505.534 329.729V511.392C505.534 511.713 505.274 511.973 504.954 511.973H405.215C404.895 511.973 404.635 511.713 404.635 511.392V329.729C404.635 329.409 404.895 329.148 405.215 329.148Z" fill="white"/>
<path d="M405.215 329.729H504.954V511.393H405.215V329.729Z" stroke="#232323" stroke-width="1.40576" stroke-linecap="round" stroke-linejoin="round"/>
<path d="M404.171 420.561H506.23" stroke="#232323" stroke-width="1.40576" stroke-linecap="round" stroke-linejoin="round"/>
<path d="M404.171 375.377L506.462 375.145" stroke="#232323" stroke-width="1.40576" stroke-linecap="round" stroke-linejoin="round"/>
<path d="M404.171 465.86H506.23" stroke="#232323" stroke-width="1.40576" stroke-linecap="round" stroke-linejoin="round"/>
<path d="M421.334 511.086C427.248 511.086 432.041 515.887 432.041 521.809C432.041 527.731 427.248 532.532 421.334 532.532C415.421 532.532 410.628 527.731 410.628 521.809C410.628 515.887 415.421 511.086 421.334 511.086Z" fill="#232323"/>
<path d="M489.144 511.086C495.057 511.086 499.851 515.887 499.851 521.809C499.851 527.731 495.057 532.532 489.144 532.532C483.231 532.532 478.437 527.731 478.437 521.809C478.437 515.887 483.231 511.086 489.144 511.086Z" fill="#232323"/>
<path d="M455.201 348.313C457.442 348.313 459.26 350.134 459.26 352.379C459.26 354.624 457.442 356.444 455.201 356.444C452.959 356.444 451.141 354.624 451.141 352.379C451.141 350.134 452.959 348.313 455.201 348.313Z" fill="white"/>
<path d="M455.201 348.313C457.442 348.313 459.26 350.134 459.26 352.379C459.26 354.624 457.442 356.444 455.201 356.444C452.959 356.444 451.141 354.624 451.141 352.379C451.141 350.134 452.959 348.313 455.201 348.313Z" stroke="#232323" stroke-width="1.40576"/>
<path d="M455.201 392.916C457.442 392.916 459.26 394.736 459.26 396.981C459.26 399.227 457.442 401.047 455.201 401.047C452.959 401.047 451.141 399.227 451.141 396.981C451.141 394.736 452.959 392.916 455.201 392.916Z" fill="white"/>
<path d="M455.201 392.916C457.442 392.916 459.26 394.736 459.26 396.981C459.26 399.227 457.442 401.047 455.201 401.047C452.959 401.047 451.141 399.227 451.141 396.981C451.141 394.736 452.959 392.916 455.201 392.916Z" stroke="#232323" stroke-width="1.40576"/>
<path d="M455.201 437.52C457.442 437.52 459.26 439.34 459.26 441.585C459.26 443.83 457.442 445.65 455.201 445.65C452.959 445.65 451.141 443.83 451.141 441.585C451.141 439.34 452.959 437.52 455.201 437.52Z" fill="white"/>
<path d="M455.201 437.52C457.442 437.52 459.26 439.34 459.26 441.585C459.26 443.83 457.442 445.65 455.201 445.65C452.959 445.65 451.141 443.83 451.141 441.585C451.141 439.34 452.959 437.52 455.201 437.52Z" stroke="#232323" stroke-width="1.40576"/>
<path d="M455.201 482.122C457.442 482.122 459.26 483.942 459.26 486.187C459.26 488.433 457.442 490.253 455.201 490.253C452.959 490.253 451.141 488.433 451.141 486.187C451.141 483.942 452.959 482.122 455.201 482.122Z" fill="white"/>
<path d="M455.201 482.122C457.442 482.122 459.26 483.942 459.26 486.187C459.26 488.433 457.442 490.253 455.201 490.253C452.959 490.253 451.141 488.433 451.141 486.187C451.141 483.942 452.959 482.122 455.201 482.122Z" stroke="#232323" stroke-width="1.40576"/>
<path d="M509.718 203.931L500.13 201.563C499.765 198.914 499.021 196.332 497.922 193.895L504.787 186.779C505.316 186.279 505.375 185.456 504.921 184.886L499.586 178.186C499.132 177.617 498.318 177.49 497.713 177.896L489.255 183.012C487.127 181.396 484.778 180.094 482.28 179.148L482.11 169.262C482.132 168.533 481.592 167.91 480.869 167.829L472.363 166.871C471.64 166.789 470.975 167.276 470.834 167.99L468.465 177.59C465.819 177.957 463.24 178.703 460.805 179.804L453.7 172.934C453.201 172.404 452.379 172.346 451.81 172.8L445.115 178.144C444.546 178.599 444.42 179.414 444.824 180.019L449.931 188.485C448.316 190.616 447.015 192.968 446.069 195.47L436.195 195.644C435.467 195.623 434.844 196.163 434.763 196.888L433.801 205.404C433.72 206.128 434.206 206.794 434.921 206.936L444.508 209.303C444.873 211.952 445.617 214.534 446.716 216.971L439.852 224.086C439.322 224.586 439.264 225.409 439.718 225.979L445.053 232.679C445.506 233.249 446.321 233.375 446.926 232.969L455.383 227.853C457.512 229.469 459.86 230.771 462.358 231.718L462.528 241.603C462.507 242.332 463.047 242.955 463.77 243.036L472.276 243.995C472.999 244.076 473.664 243.589 473.806 242.874L476.174 233.275C478.82 232.908 481.399 232.162 483.834 231.061L490.939 237.931C491.438 238.461 492.26 238.519 492.829 238.064L499.523 232.72C500.092 232.266 500.219 231.451 499.814 230.845L494.708 222.379C496.323 220.248 497.623 217.896 498.57 215.394L508.444 215.221C509.171 215.242 509.793 214.701 509.876 213.978L510.837 205.462C510.918 204.738 510.431 204.072 509.718 203.931Z" fill="#C3DAF6"/>
<path d="M471.642 195.7C477.01 195.324 481.665 199.375 482.04 204.749C482.414 210.124 478.366 214.786 472.997 215.163C467.629 215.54 462.974 211.489 462.6 206.114C462.225 200.74 466.274 196.077 471.642 195.7Z" fill="white"/>
<path d="M471.093 187.823C480.807 187.141 489.231 194.472 489.908 204.197C490.585 213.922 483.26 222.359 473.546 223.041C463.832 223.723 455.408 216.392 454.731 206.667C454.054 196.941 461.379 188.505 471.093 187.823Z" stroke="white" stroke-width="1.40576" stroke-miterlimit="10"/>
<path d="M449.323 162.68L441.908 161.605C441.434 159.632 440.68 157.737 439.668 155.979L444.319 150.096C444.682 149.679 444.665 149.053 444.28 148.657L439.752 143.994C439.366 143.597 438.742 143.563 438.315 143.914L432.312 148.405C430.584 147.344 428.714 146.536 426.758 146.006L425.89 138.554C425.852 138.002 425.398 137.572 424.846 137.564L418.351 137.472C417.799 137.464 417.334 137.881 417.28 138.432L416.209 145.856C414.238 146.329 412.346 147.084 410.59 148.096L404.712 143.437C404.296 143.073 403.671 143.09 403.275 143.475L398.62 148.008C398.223 148.394 398.189 149.019 398.54 149.446L403.029 155.458C401.969 157.187 401.162 159.06 400.635 161.018L393.192 161.883C392.641 161.921 392.211 162.376 392.203 162.929L392.114 169.43C392.106 169.983 392.524 170.45 393.073 170.503L400.489 171.579C400.963 173.552 401.717 175.447 402.728 177.205L398.077 183.087C397.714 183.504 397.731 184.13 398.116 184.527L402.645 189.189C403.03 189.586 403.654 189.621 404.081 189.269L410.085 184.778C411.812 185.84 413.682 186.648 415.638 187.177L416.506 194.63C416.544 195.182 416.998 195.612 417.55 195.62L424.044 195.712C424.597 195.72 425.062 195.302 425.116 194.752L426.187 187.328C428.158 186.854 430.05 186.1 431.806 185.088L437.684 189.747C438.1 190.11 438.725 190.093 439.121 189.708L443.776 185.176C444.172 184.791 444.207 184.166 443.856 183.738L439.367 177.726C440.427 175.997 441.233 174.125 441.761 172.166L449.204 171.302C449.755 171.264 450.184 170.809 450.192 170.256L450.281 163.754C450.289 163.202 449.873 162.734 449.323 162.68Z" fill="#C3DAF6"/>
<path d="M421.712 159.208C425.785 159.494 428.857 163.032 428.573 167.109C428.289 171.187 424.757 174.261 420.684 173.975C416.611 173.689 413.54 170.151 413.824 166.074C414.108 161.996 417.639 158.922 421.712 159.208Z" fill="white"/>
<path d="M422.129 153.232C429.499 153.749 435.057 160.15 434.543 167.529C434.029 174.907 427.638 180.469 420.268 179.952C412.898 179.435 407.34 173.034 407.854 165.655C408.368 158.276 414.759 152.714 422.129 153.232Z" stroke="white" stroke-width="1.40576" stroke-miterlimit="10"/>
<path d="M451.083 289.13C450.379 289.111 449.768 289.614 449.651 290.31C449.474 291.642 449.386 292.984 449.385 294.327C449.385 308.649 459.562 320.259 472.116 320.259C484.67 320.259 494.847 308.649 494.847 294.327C494.847 292.984 494.758 291.642 494.581 290.31C494.465 289.614 493.854 289.111 493.15 289.13H451.083Z" fill="#205993"/>
<path d="M461.331 318.981H482.438" stroke="white" stroke-width="1.40576" stroke-linecap="round" stroke-linejoin="round"/>
<path d="M486.073 309.77C488.926 305.645 490.438 300.738 490.402 295.72C490.402 294.557 490.325 293.395 490.172 292.242" stroke="white" stroke-width="1.40576" stroke-linecap="round" stroke-linejoin="round"/>
<path d="M480.96 314.897C482.03 314.15 483.025 313.301 483.932 312.361" stroke="white" stroke-width="1.40576" stroke-linecap="round" stroke-linejoin="round"/>
<path d="M451.937 300.282C447.515 291.194 438.02 294.01 438.02 300.979C438.02 308.18 446.37 312.362 454.256 308.938" stroke="#205993" stroke-width="5.06073" stroke-linecap="round" stroke-linejoin="round"/>
<path d="M450.619 288.898C449.915 288.878 449.304 289.382 449.187 290.077C449.01 291.409 448.922 292.751 448.921 294.095C448.921 301.689 451.783 308.521 456.344 313.264" stroke="white" stroke-width="1.40576" stroke-miterlimit="10"/>
<path d="M446.536 319.563C446.328 319.562 446.159 319.731 446.159 319.939C446.159 320.099 446.259 320.241 446.409 320.294C450.728 321.804 460.467 323.976 472.117 323.976C483.368 323.976 493.488 321.906 497.925 320.293C498.12 320.221 498.22 320.004 498.148 319.809C498.093 319.661 497.952 319.563 497.795 319.563H446.536Z" fill="#205993"/>
<path d="M474.668 283.545C474.988 284.062 475.26 284.359 475.26 284.359M475.54 257.233C475.135 262.054 479.642 263.099 479.636 268.129C479.633 270.826 478.118 272.559 476.611 274.304" stroke="#C3DAF6" stroke-width="1.40576" stroke-linecap="round" stroke-linejoin="round"/>
<path d="M466.654 275.549C466.364 270.865 469.631 270.068 469.972 266.99C470.022 266.547 470.016 266.142 469.969 265.763" stroke="#C3DAF6" stroke-width="1.40576" stroke-linecap="round" stroke-linejoin="round"/>
<path d="M351.521 460.401C340.158 466.214 334.36 467.843 311.396 466.227C288.432 464.611 279.547 473.918 281.944 480.178C286.124 491.095 323.698 486.2 351.521 460.401Z" fill="#232323"/>
<path d="M352.697 497.338C352.577 497.477 324.047 503.323 317.205 490.385C316.582 486.738 315.742 482.881 314.865 479.236L314.862 479.236C313.58 473.718 311.265 465.737 311.396 466.228C311.808 454.562 320.516 448.259 329.81 447.388C338.875 446.538 348.497 450.855 351.52 460.404C351.711 464.569 352.871 489.615 352.697 497.338Z" fill="white"/>
<path d="M352.697 497.338C352.597 497.465 330.791 504.218 320.536 497.187C318.873 496.046 317.949 493.736 317.205 490.385C316.733 487.621 316.129 484.708 315.49 481.9L352.24 476.7C352.484 483.353 352.694 491.221 352.697 497.338Z" fill="#C3DAF6"/>
<path d="M314.805 487.636L358.257 482.236" stroke="white" stroke-width="2.81152" stroke-linecap="round" stroke-linejoin="round"/>
<path d="M352.697 497.338C352.576 497.477 324.047 503.323 317.205 490.385C316.581 486.738 315.741 482.881 314.865 479.236L314.862 479.236C313.58 473.718 311.265 465.737 311.396 466.228C311.808 454.562 320.516 448.259 329.81 447.388C338.875 446.538 348.497 450.855 351.52 460.404C351.711 464.569 352.87 489.615 352.697 497.338Z" stroke="#232323" stroke-width="1.40576"/>
<path d="M396.713 521.864C391.111 530.356 377.128 530.969 356.323 531.141C337.982 531.27 319.983 531.179 318.038 531.213C318.459 519.264 318.408 512.384 319.283 511.233C320.412 509.748 327.804 508.463 332.357 510.051C339.554 512.563 360.67 519.491 361.424 519.576C378.915 521.935 387.859 505.956 396.713 521.864Z" fill="white"/>
<path d="M394.878 518.641C380.597 529.914 366.09 525.926 357.456 522.353C350.01 519.27 349.772 522.469 343.701 520.551C338.63 518.949 337.033 515.323 330.579 514.58C326.703 514.138 321.03 515.905 318.482 518.697C318.705 513.694 317.26 489.612 317.276 489.196C322.644 489.341 325.256 492.002 329.809 493.59C337.006 496.102 349.528 495.65 353.472 495.951C361.374 496.553 368.611 499.26 372.476 500.894C381.755 504.996 388.965 510.383 394.878 518.641Z" fill="#232323"/>
<path d="M318.82 509.219C318.82 509.219 322.984 509.622 328.236 505.869C333.487 502.116 334.062 500.35 341.677 499.322" stroke="white" stroke-width="1.68691" stroke-linecap="round" stroke-linejoin="round"/>
<path d="M394.881 518.641L394.879 518.641C380.597 529.914 366.902 526.274 358.268 522.7C350.822 519.618 349.339 522.039 343.816 520.435C338.711 518.952 337.872 515.055 331.615 514.464C323.461 513.695 318.598 518.813 318.598 518.813" stroke="#232323" stroke-width="1.40576" stroke-linecap="round" stroke-linejoin="round"/>
<path d="M330.444 519.688C334.222 519.663 337.296 521.439 337.31 523.655C337.325 525.87 334.274 527.687 330.497 527.712C326.72 527.737 323.646 525.961 323.632 523.745C323.617 521.529 326.667 519.712 330.444 519.688Z" stroke="#232323" stroke-width="1.40576" stroke-linecap="round" stroke-linejoin="round"/>
<path d="M317.249 489.655C317.195 490.13 319.373 513.347 318.01 531.236C318.01 531.236 364.263 532.09 381.36 529.744C390.637 528.471 394.773 524.553 396.775 521.912C396.77 521.902 396.765 521.891 396.762 521.88C396.754 521.867 396.746 521.844 396.731 521.818L396.731 521.815C396.034 520.548 395.286 519.342 394.494 518.196C382.933 501.479 363.457 497.179 353.676 496.569" stroke="#232323" stroke-width="1.40576" stroke-linecap="round" stroke-linejoin="round"/>
<path d="M361.883 496.572C351.972 500.08 348.347 508.769 348.347 508.769" stroke="#205993" stroke-width="4.21728" stroke-linecap="round" stroke-linejoin="round"/>
<path d="M369.868 499.373C359.707 502.371 355.87 511.164 355.87 511.164" stroke="#205993" stroke-width="4.21728" stroke-linecap="round" stroke-linejoin="round"/>
<path d="M377.3 502.702C368.081 505.301 364.578 512.85 364.578 512.85" stroke="#205993" stroke-width="4.21728" stroke-linecap="round" stroke-linejoin="round"/>
<path d="M103.185 361.008C110.608 392.834 154.782 446.484 268.171 396.306C278.476 391.561 325.024 361.008 300.576 345.444C273.269 329.283 229.979 327.057 193.061 330.542C173.297 321.013 154.584 319.912 140.397 324.061C129.203 327.334 99.1558 333.942 103.185 361.008Z" fill="#205993"/>
<path d="M268.059 396.31C285.422 412.554 277.09 460.956 281.676 479.249C281.676 479.249 287.514 465.222 314.644 466.922C325.778 467.847 341.55 466.446 351.521 460.401C351.521 460.401 348.979 373.981 300.441 345.433C273.098 329.344 243.654 359.192 268.059 396.31Z" fill="#205993"/>
<path d="M265.297 481.909C265.297 481.909 275.822 483.363 283.204 491.053C292.109 500.329 303.685 495.918 303.412 491.735C302.128 472.133 272.655 466.541 272.655 466.541L265.297 481.909Z" fill="#232323"/>
<path d="M284.343 479.679L279.116 486.823L270.686 498.346C270.686 498.346 245.787 505.507 237.412 486.365C238.323 483.882 239.832 479.901 241.418 475.76C241.766 474.853 242.117 473.939 242.464 473.03C242.468 473.023 242.471 473.015 242.473 473.007C245.092 466.194 247.601 459.736 247.677 459.535C247.678 459.533 247.679 459.531 247.679 459.53C247.679 459.53 260.219 444.273 274.521 450.757C293.568 459.393 284.343 479.679 284.343 479.679Z" fill="white"/>
<path d="M279.115 486.824L270.685 498.347C270.685 498.347 245.786 505.507 237.412 486.365C238.323 483.883 239.832 479.902 241.418 475.761L279.115 486.824Z" fill="#205993"/>
<path d="M234.809 480.937L281.788 494.792" stroke="white" stroke-width="2.81152" stroke-linecap="round" stroke-linejoin="round"/>
<path d="M284.343 479.679L279.116 486.823L270.686 498.346C270.686 498.346 245.787 505.506 237.412 486.364C238.323 483.882 239.832 479.901 241.418 475.76C241.766 474.853 242.117 473.939 242.464 473.03C242.468 473.023 242.471 473.015 242.473 473.007C245.092 466.194 249.009 460.315 249.085 460.114C249.086 460.113 249.087 460.111 249.087 460.109C249.087 460.109 260.219 444.273 274.521 450.757C293.568 459.393 284.343 479.679 284.343 479.679Z" stroke="#232323" stroke-width="1.68691"/>
<path d="M310.275 512.962C307.595 524.681 295.165 529.919 262.631 531.11C242.581 531.843 223.377 532.402 223.015 531.985C224.167 524.28 237.359 486.453 237.377 486.452C242.529 487.917 243.854 493.22 249.694 494.431C255.755 495.688 259.023 495.656 265.764 496.25C285.098 498.238 296.892 500.553 310.275 512.962Z" fill="white"/>
<path d="M307.324 510.299C296.844 525.297 276.071 524.895 267.355 521.529C259.839 518.625 257.482 522.682 251.368 520.908C246.262 519.429 244.579 515.841 238.11 515.253C234.223 514.903 228.625 517.673 226.347 519.795C226.327 519.812 237.351 486.219 237.369 486.219C242.767 488.141 243.353 492.073 248.512 493.77C252.824 495.188 258.917 495.365 265.658 495.959C284.32 498.248 293.269 500.206 307.324 510.299Z" fill="#232323"/>
<path d="M230.166 509.595C230.166 509.595 234.338 509.899 239.5 506.022C244.662 502.146 245.196 500.368 252.784 499.159" stroke="white" stroke-width="1.68691" stroke-linecap="round" stroke-linejoin="round"/>
<path d="M307.327 510.302L307.325 510.303C296.846 525.296 276.073 524.897 267.358 521.53C259.841 518.627 257.041 522.263 251.482 520.791C246.343 519.431 244.908 515.845 239.145 515.115C230.977 514.08 226.695 519.67 226.695 519.67" stroke="#232323" stroke-width="1.40576" stroke-linecap="round" stroke-linejoin="round"/>
<path d="M231.379 524.579C231.313 522.365 234.319 520.477 238.095 520.362C241.871 520.248 244.986 521.95 245.053 524.164C245.119 526.379 242.112 528.267 238.337 528.381C234.561 528.496 231.446 526.794 231.379 524.579Z" stroke="#232323" stroke-width="1.40576" stroke-linecap="round" stroke-linejoin="round"/>
<path d="M237.272 486.806C237.229 487.282 223.773 526.879 222.917 532.572C222.917 532.572 277.215 532.839 295.532 526.746C309.325 522.158 309.114 516.087 310.275 512.964C310.275 512.964 300.663 498.937 262.882 496.014" stroke="#232323" stroke-width="1.40576" stroke-linecap="round" stroke-linejoin="round"/>
<path d="M275.999 496.255C265.994 499.488 262.129 508.072 262.129 508.072" stroke="#205993" stroke-width="4.21728" stroke-linecap="round" stroke-linejoin="round"/>
<path d="M283.813 498.214C273.572 500.93 269.492 509.612 269.492 509.612" stroke="#205993" stroke-width="4.21728" stroke-linecap="round" stroke-linejoin="round"/>
<path d="M290.546 500.795C281.257 503.138 277.546 510.588 277.546 510.588" stroke="#205993" stroke-width="4.21728" stroke-linecap="round" stroke-linejoin="round"/>
<path d="M103.187 361.126C110.61 392.952 153.513 443.101 257.897 400.268C282.462 390.102 313.453 391.05 320.509 383.063C332.26 369.758 308.061 349.797 300.576 345.444C273.269 329.283 228.846 327.351 191.928 330.836C172.164 318.447 148.47 320.957 136.701 325.351C124.383 329.951 99.7373 340.333 103.187 361.126Z" fill="#205993"/>
<path d="M245.145 465.917C245.145 465.917 248.453 477.057 285.179 478.157C298.942 478.569 303.31 491.87 303.307 491.881C306.822 489.736 364.379 388.25 300.647 346.043C289.857 339.883 263.774 347.726 266.255 362.432C267.733 371.193 269.073 393.595 265.335 408.992C260.815 427.61 245.145 465.917 245.145 465.917Z" fill="#205993"/>
<path d="M310.595 353.643C329.339 371.444 338.936 410.448 313.124 474.795" stroke="white" stroke-width="1.40576" stroke-linecap="round" stroke-linejoin="round"/>
<path d="M265.598 407.929C265.598 407.929 268.397 390.992 267.594 382.332L265.598 407.929Z" fill="#205993"/>
<path d="M265.598 407.929C265.598 407.929 268.397 390.992 267.594 382.332" stroke="white" stroke-width="1.40576" stroke-linecap="round"/>
<path d="M263.837 326.513C263.837 326.513 255.686 314.203 262.502 299.018C264.855 293.775 270.238 286.869 279.188 282.912C292.038 281.166 303.42 280.746 313.475 281.695C316.595 281.99 319.599 282.362 322.457 282.977C335.785 285.844 332.665 306.986 316.952 309.608C314.311 310.048 311.535 310.436 308.727 311.021C286.938 315.565 262.393 326.275 263.837 326.513Z" fill="white"/>
<path d="M263.837 326.513C263.837 326.513 255.686 314.203 262.502 299.018C264.855 293.775 270.238 286.869 279.188 282.912C292.038 281.166 303.42 280.746 313.475 281.695C316.595 281.99 319.599 282.362 322.457 282.977C335.785 285.844 332.665 306.986 316.952 309.608C314.311 310.048 311.535 310.436 308.727 311.021C286.938 315.565 262.393 326.275 263.837 326.513Z" stroke="#232323" stroke-width="1.26518"/>
<path d="M322.454 282.961C331.12 284.576 339.216 296.809 338.405 299.373C335.355 309.017 322.854 308.824 316.95 309.591C304.054 311.267 304.87 298.275 305.998 293.737C307.629 287.168 317.057 281.908 322.454 282.961Z" fill="white"/>
<path d="M320.982 290.055C323.347 290.153 325.187 292.155 325.089 294.523C324.991 296.89 322.992 298.733 320.628 298.634C318.263 298.536 316.423 296.533 316.521 294.166C316.618 291.798 318.618 289.956 320.982 290.055Z" fill="white"/>
<path d="M336.858 299.484C340.7 304.542 342.391 309.987 342.65 314.219C342.867 317.75 342.352 320.643 341.654 322.527C336.277 336.6 335.983 315.083 335.983 315.083C335.437 309.838 333 304.476 330.271 300.111C324.191 290.382 331.597 292.559 336.858 299.484Z" fill="white"/>
<path d="M336.858 299.484C340.7 304.542 342.391 309.987 342.65 314.219C342.867 317.75 342.352 320.643 341.654 322.527C336.277 336.6 335.983 315.083 335.983 315.083C335.437 309.838 333 304.476 330.271 300.111C324.191 290.382 331.597 292.559 336.858 299.484Z" stroke="#232323" stroke-width="1.12461"/>
<path d="M320.128 290.59C320.196 288.661 324.901 289.244 328.67 291.2C337.059 295.554 342.043 302.103 344.791 307.745C347.103 312.493 347.958 316.691 348.143 318.86C347.632 337.709 342.766 324.648 342.284 323.045C340.295 317.986 338.209 313.749 336.149 310.181C328.05 296.159 320.039 293.108 320.128 290.59Z" fill="white"/>
<path d="M320.128 290.59C320.196 288.661 324.901 289.244 328.67 291.2C337.059 295.554 342.043 302.103 344.791 307.745C347.103 312.493 347.958 316.691 348.143 318.86C347.632 337.709 342.766 324.648 342.284 323.045C340.295 317.986 338.209 313.749 336.149 310.181C328.05 296.159 320.039 293.108 320.128 290.59Z" stroke="#232323" stroke-width="1.12461"/>
<path d="M308.822 284.952C309.045 281.033 319.118 281.026 325.192 283.594C333.905 287.686 340.966 293.21 346.293 299.798C350.308 304.765 353.44 310.391 355.747 316.714C359.946 328.223 351.212 318.212 349.901 316.819C345.796 312.371 342.121 308.269 338.028 305.145C322.027 292.929 308.6 288.86 308.822 284.952Z" fill="white"/>
<path d="M323.047 282.836C323.798 283.056 324.519 283.308 325.191 283.592C333.904 287.684 340.966 293.208 346.293 299.797C350.308 304.764 353.44 310.39 355.747 316.714C359.946 328.223 351.212 318.211 349.9 316.819C345.796 312.37 342.12 308.268 338.028 305.144C332.307 300.776 326.915 297.45 322.358 294.8" stroke="#232323" stroke-width="1.12461" stroke-linecap="round" stroke-linejoin="round"/>
<path d="M323.609 294.7C346.07 312.089 340.406 315.818 340.406 315.818C340.383 315.835 340.359 315.85 340.334 315.866C340.33 315.869 340.325 315.872 340.319 315.874C338.335 317.047 330.101 312.248 329.775 312.029C325.618 310.114 319.919 309.109 313.473 308.791C290.146 307.639 307.342 282.107 323.609 294.7Z" fill="white"/>
<path d="M323.608 294.699C346.07 312.088 340.406 315.818 340.406 315.818C340.383 315.835 340.359 315.85 340.334 315.866C340.33 315.869 340.325 315.872 340.319 315.873C338.334 317.047 330.101 312.247 329.774 312.028C325.617 310.113 319.917 309.109 313.472 308.79C311.624 308.699 310.031 308.455 308.671 308.088" stroke="#232323" stroke-width="1.12461" stroke-linecap="round"/>
<path d="M272.659 322.566C259.732 331.289 235.239 339.223 211.999 340.781C157.758 344.415 153.161 309.077 153.161 309.077C150.359 280.115 223.301 281.888 228.991 281.489C240.538 281.638 278.983 282.491 278.983 282.491C278.983 282.491 268.687 301.803 272.659 322.566Z" fill="white"/>
<path d="M279.799 282.964C261.303 282.174 228.78 281.849 228.78 281.849" stroke="#232323" stroke-width="1.12461" stroke-linecap="round" stroke-linejoin="round"/>
<path d="M258.07 282.362C252.672 294.695 246.811 316.423 251.091 332.67" stroke="#232323" stroke-width="1.12461" stroke-linecap="round" stroke-linejoin="round"/>
<path d="M239.539 192.062L239.536 192.064C239.441 192.133 236.757 194.109 233.461 197.382C229.159 201.648 223.814 208.125 221.809 215.452C221.809 215.452 215.328 229.956 194.959 215.958C183.581 208.138 185.862 200.132 191.711 193.158C191.711 193.158 206.917 184.364 214.213 174.492C232.923 152.587 259.403 174.123 239.539 192.062Z" fill="white"/>
<path d="M239.539 192.062L239.536 192.064C239.441 192.133 236.757 194.109 233.461 197.382C229.159 201.648 223.814 208.125 221.809 215.452C221.809 215.452 215.328 229.956 194.959 215.958C183.581 208.138 185.862 200.132 191.711 193.158C191.711 193.158 206.917 184.364 214.213 174.492C232.923 152.587 259.403 174.123 239.539 192.062Z" stroke="#232323" stroke-width="1.40576"/>
<path d="M244.959 188.779C244.959 188.779 243.842 198.154 242.169 199.61C241.237 200.421 238.704 200.585 233.458 197.378C226.515 192.592 229.032 184.311 230.543 183.697C234.064 181.049 236.683 180.078 239.04 180.8C242.974 182.005 244.959 188.779 244.959 188.779Z" fill="#232323"/>
<path d="M263.468 186.49C263.203 189.448 261.136 192.22 257.779 193.416C249.038 196.531 238.978 192.296 238.978 192.296C238.978 192.296 233.483 189.718 230.166 183.743C225.348 175.286 222.415 178.218 218.376 175.268C210.32 169.383 220.185 148.022 221.6 145.466C227.124 135.051 240.731 133.393 249.426 139.503C257.626 145.264 257.165 152.74 257.165 152.74C257.165 152.74 256.963 154.264 256.843 156.199C256.684 158.758 256.674 162.034 257.464 163.455C258.855 165.949 260.662 165.85 260.487 167.31C260.337 168.56 258.704 169.843 257.796 170.368C256.979 178.94 264.084 179.586 263.468 186.49Z" fill="white"/>
<path d="M218.288 153.176C219.678 149.34 221.121 146.329 221.599 145.465C227.124 135.051 240.731 133.393 249.426 139.502C257.626 145.264 257.165 152.74 257.165 152.74C257.165 152.74 256.963 154.263 256.843 156.199C256.684 158.757 256.673 162.034 257.464 163.455C258.855 165.949 260.662 165.85 260.487 167.309C260.337 168.56 258.704 169.843 257.796 170.368C256.979 178.94 264.084 179.586 263.468 186.49C263.203 189.448 261.136 192.22 257.779 193.416C249.038 196.531 238.978 192.296 238.978 192.296C238.978 192.296 233.482 189.718 230.166 183.743C230.124 183.669 230.082 183.595 230.04 183.523" stroke="#232323" stroke-width="1.68691" stroke-linecap="round"/>
<path d="M240.596 156.581C242.774 147.754 253.779 151.114 251.601 154.053C251.341 154.404 250.76 154.722 250.216 154.835C247.424 155.41 245.909 155.91 243.733 157.301C242.739 157.936 240.385 158.415 240.596 156.581Z" fill="#232323"/>
<path d="M245.622 161.689C246.954 161.394 250.167 160.761 253.132 159.216C253.548 158.998 254.063 159.163 254.275 159.582C257.863 165.829 243.396 163.835 245.622 161.689Z" fill="#232323"/>
<path d="M254.313 177.859C251.643 179.64 247.659 177.879 246.863 174.839C246.608 173.992 246.411 171.401 247.729 171.576C247.938 171.673 248.058 171.897 248.024 172.124C247.631 174.405 249.34 176.665 251.592 177.051C252.333 177.225 253.109 177.192 253.83 176.949C254.375 176.732 254.798 177.528 254.313 177.859Z" fill="#232323"/>
<path d="M257.169 152.736C257.169 152.736 245.632 150.287 239.953 153.618C237.44 155.092 235.687 158.21 234.161 160.967C231.783 165.262 229.966 168.678 226.71 163.65C226.402 163.175 226.101 162.703 225.804 162.235C225.802 162.221 225.803 162.21 225.802 162.198C225.797 162.202 225.79 162.204 225.785 162.208C223.651 163.368 220.187 164.036 218.263 161.648C216.693 159.695 216.341 157.049 217.394 153.724C217.42 153.672 217.442 153.623 217.467 153.571C219.899 148.409 218.893 142.196 218.083 138.715C215.852 129.141 229.755 120.669 237.94 129.903C241.387 122.285 255.647 123.161 256.845 134.3C260.113 133.334 262.963 133.853 265.752 135.719C269.001 137.998 270.278 143.073 268.553 147.083C267.152 150.34 263.151 153.363 257.169 152.736Z" fill="#232323"/>
<path d="M261.528 133.739C261.528 133.739 255.804 133.042 251.166 137.627" stroke="white" stroke-width="1.40576" stroke-linecap="round" stroke-linejoin="round"/>
<path d="M214.174 174.48C208.623 172.946 203.087 166.355 205.52 158.873C206.909 154.606 211.983 152.268 216.394 153.598C220.923 154.964 223.456 159.185 226.483 163.534C229.905 168.45 228.897 178.079 214.174 174.48Z" fill="white"/>
<path d="M220.6 175.255C218.832 175.327 216.706 175.1 214.175 174.481C208.624 172.947 203.087 166.355 205.521 158.873C206.91 154.606 211.983 152.268 216.394 153.598C218.257 154.16 219.782 155.204 221.142 156.542" stroke="#232323" stroke-width="1.40576"/>
<path d="M212.016 159.225C212.016 159.225 218.928 159.613 220.314 167.952" stroke="#232323" stroke-width="1.40576" stroke-miterlimit="10" stroke-linecap="round"/>
<path d="M219.703 163.151C219.703 163.151 227.483 186.433 249.581 186.717" stroke="#232323" stroke-width="1.40576" stroke-linecap="round" stroke-linejoin="round"/>
<path d="M250.651 183.664C253.077 183.874 254.927 185.391 254.785 187.052C254.642 188.713 252.56 189.889 250.135 189.679C247.709 189.469 245.859 187.952 246.001 186.291C246.144 184.63 248.226 183.454 250.651 183.664Z" fill="#232323"/>
<path d="M221.626 152.472C227.5 152.955 231.873 158.114 231.394 163.994C230.914 169.875 225.763 174.251 219.889 173.768C214.014 173.285 209.641 168.127 210.121 162.246C210.6 156.365 215.751 151.989 221.626 152.472Z" fill="#C3DAF6"/>
<path d="M239.696 127.409C238.944 128.104 238.336 128.94 237.907 129.871L237.841 129.879C229.271 130.85 224.651 135.691 222.248 139.745C219.376 144.589 218.442 150.25 218.796 155.099C219.005 157.962 219.665 160.542 220.641 162.503C220.927 163.078 220.694 163.775 220.121 164.061C219.547 164.348 218.85 164.114 218.564 163.54C215.96 158.306 215.346 149.611 218.612 141.823C219.083 140.697 219.631 139.607 220.252 138.557C222.736 134.366 227.339 129.419 235.579 127.868C236.939 127.617 238.314 127.464 239.696 127.409Z" fill="white"/>
<path d="M235.106 289.181C230.299 274.881 224.224 236.743 224.224 236.743C224.224 236.743 222.966 225.075 222.282 214.642C228.454 223.89 229.267 233.146 229.267 233.146C234.642 240.334 238.387 260.901 249.977 281.267C256.028 291.905 269.769 313.08 271.535 324.587C271.46 328.295 267.219 338.287 264.111 339.368C260.648 340.573 249.869 335.749 248.579 331.915C239.54 303.483 238.343 298.963 235.106 289.181Z" fill="#C3DAF6"/>
<path d="M229.548 233.423C228.384 236.091 226.879 237.365 224.629 238.263" stroke="white" stroke-width="1.40576" stroke-linecap="round" stroke-linejoin="round"/>
<path d="M145.986 339.76C117.169 349.193 103.173 361.11 103.173 361.11C102.247 356.97 101.524 352.797 101.004 348.588C92.8501 283.168 132.402 211.896 191.35 193.46L222.316 214.66C222.84 216.021 223.458 233.179 222.16 239.36C227.515 291.112 223.798 315.924 214.91 331.873C187.481 331.353 159.512 335.333 145.986 339.76Z" fill="white"/>
<path d="M145.986 339.76C117.169 349.193 103.173 361.11 103.173 361.11C102.247 356.97 101.524 352.797 101.004 348.588C92.8501 283.168 132.402 211.896 191.35 193.46L222.316 214.66C222.84 216.021 223.458 233.179 222.16 239.36C227.515 291.112 223.798 315.924 214.91 331.873C187.481 331.353 159.512 335.333 145.986 339.76Z" stroke="#232323" stroke-width="1.40576"/>
<path d="M209.811 227.097C218.358 243.166 224.183 255.577 221.859 214.183" stroke="#232323" stroke-width="1.12461" stroke-linejoin="round"/>
<path d="M178.309 198.542C178.489 198.836 186.183 202.426 191.14 206.138" stroke="#232323" stroke-width="1.12461" stroke-linejoin="round"/>
<path d="M193.061 330.661C136.699 339.367 103.185 361.127 103.185 361.127C102.055 356.449 101.413 352.804 101.128 350.793C110.063 344.989 129.57 336.117 143.095 331.894C189.821 317.303 218.78 319.735 218.78 319.735C218.78 319.735 217.161 324.619 214.759 329.347C200.188 329.733 193.07 330.659 193.061 330.661Z" fill="#232323"/>
<path d="M374.441 321.217L409.617 240.125L446.034 240.357L410.625 321.449L374.441 321.217Z" fill="white"/>
<path d="M374.093 321.333L409.733 239.776H446.381L410.277 321.565" stroke="#C3DAF6" stroke-width="4.21728" stroke-linecap="round" stroke-linejoin="round"/>
<path d="M391.707 262.4C393.831 261.474 397.413 258.52 398.874 254.812L403.337 256.08C402.221 259.581 399.144 263.441 395.984 265.445C394.649 264.693 391.707 262.4 391.707 262.4Z" stroke="#205993" stroke-width="1.40576" stroke-linecap="round" stroke-linejoin="round"/>
<path d="M391.707 262.4C393.831 261.474 397.413 258.52 398.874 254.812L403.337 256.08C402.221 259.581 399.144 263.441 395.984 265.445C394.649 264.693 391.707 262.4 391.707 262.4Z" fill="#205993"/>
<path d="M420.139 281.331C422.196 280.262 425.571 277.073 426.779 273.274L431.33 274.313C430.031 278.317 427.4 281.889 424.635 284.072C423.253 283.414 420.139 281.331 420.139 281.331Z" fill="#232323"/>
<path d="M420.139 281.331C422.196 280.262 425.571 277.073 426.779 273.274L431.33 274.313C430.031 278.317 427.4 281.889 424.635 284.072C423.253 283.414 420.139 281.331 420.139 281.331Z" stroke="#232323" stroke-width="1.40576" stroke-linecap="round" stroke-linejoin="round"/>
<path d="M352.967 281.627C371.788 301.758 363.756 307.882 363.756 307.882C363.73 307.891 363.702 307.899 363.674 307.907C363.669 307.909 363.663 307.91 363.657 307.91C361.421 308.474 354.877 301.536 354.625 301.234C351.178 298.219 347.189 295.334 340.861 294.067C317.958 289.482 338.916 266.598 352.967 281.627Z" fill="white"/>
<path d="M352.967 281.627C371.788 301.758 363.756 307.882 363.756 307.882C363.73 307.891 363.702 307.899 363.674 307.907C363.669 307.909 363.663 307.91 363.657 307.91C361.421 308.474 354.877 301.536 354.625 301.234C351.178 298.219 347.189 295.334 340.861 294.067C317.958 289.482 338.916 266.598 352.967 281.627Z" stroke="#232323" stroke-width="1.40576"/>
<path d="M335.778 266.05C335.713 262.126 345.758 261.38 352.004 263.496C360.993 266.938 368.488 272.396 373.986 278.846C378.13 283.707 381.408 289.251 383.879 295.514C388.377 306.912 379.383 297.128 378.036 295.771C373.816 291.429 370.695 286.863 366.384 284.047C353.369 275.545 342.241 271.775 337.818 268.697C336.514 267.789 335.793 266.942 335.778 266.05Z" fill="white"/>
<path d="M335.778 266.05C335.713 262.126 345.758 261.38 352.004 263.496C360.993 266.938 368.488 272.396 373.986 278.846C378.13 283.707 381.408 289.251 383.879 295.514C388.377 306.912 379.383 297.128 378.036 295.771C373.816 291.429 370.695 286.863 366.384 284.047C353.369 275.545 342.241 271.775 337.818 268.697C336.514 267.789 335.793 266.942 335.778 266.05Z" stroke="#232323" stroke-width="1.40576"/>
<path d="M346.88 272.156C346.472 270.27 351.175 269.677 355.309 270.645C364.51 272.799 370.958 277.766 375.098 282.481C378.582 286.448 380.515 290.269 381.266 292.312C385.753 310.622 377.61 299.315 376.722 297.896C373.468 293.544 370.337 290.009 367.408 287.114C355.895 275.734 347.414 274.618 346.88 272.156Z" fill="white"/>
<path d="M346.88 272.156C346.472 270.27 351.175 269.677 355.309 270.645C364.51 272.799 370.958 277.766 375.098 282.481C378.582 286.448 380.515 290.269 381.266 292.312C385.753 310.622 377.61 299.315 376.722 297.896C373.468 293.544 370.337 290.009 367.408 287.114C355.895 275.734 347.414 274.618 346.88 272.156Z" stroke="#232323" stroke-width="1.40576"/>
<path d="M362.684 277.494C367.833 281.211 371.017 285.506 372.855 289.323C374.389 292.508 375.005 295.379 375.07 297.386C375.411 312.436 365.878 293.211 365.878 293.211C361.682 286.918 356.282 287.036 352.4 283.656C343.748 276.123 355.633 272.405 362.684 277.494Z" fill="white"/>
<path d="M362.684 277.494C367.833 281.211 371.017 285.506 372.855 289.323C374.389 292.508 375.005 295.379 375.07 297.386C375.411 312.436 365.878 293.211 365.878 293.211C361.682 286.918 356.282 287.036 352.4 283.656C343.748 276.123 355.633 272.405 362.684 277.494Z" stroke="#232323" stroke-width="1.40576"/>
<path d="M285.529 327.406H504.954" stroke="#9A3C81" stroke-width="8.43455" stroke-miterlimit="10" stroke-linecap="round"/>
<path d="M311.713 323.997C310.156 323.623 309.196 322.055 309.57 320.496C309.883 319.189 311.05 318.268 312.392 318.269L410.243 318.24C411.844 318.24 413.142 319.539 413.143 321.143C413.143 322.747 411.845 324.047 410.244 324.048L312.392 324.077C312.163 324.077 311.935 324.05 311.713 323.997Z" stroke="white" stroke-width="4.21728"/>
<path d="M311.712 323.997C310.155 323.623 309.196 322.055 309.57 320.496C309.882 319.189 311.05 318.268 312.392 318.269L410.242 318.24C411.843 318.24 413.142 319.539 413.142 321.143C413.143 322.747 411.845 324.047 410.244 324.048L312.392 324.077C312.163 324.077 311.935 324.05 311.712 323.997Z" fill="#C3DAF6"/>
<path d="M406.642 320.188C407.219 320.188 407.686 320.657 407.686 321.234C407.686 321.811 407.219 322.279 406.642 322.279C406.066 322.279 405.599 321.811 405.599 321.234C405.599 320.657 406.066 320.188 406.642 320.188Z" fill="white"/>
<path d="M401.775 321.138L394.63 321.092" stroke="white" stroke-width="2.24921" stroke-linecap="round" stroke-linejoin="round"/>
<path d="M285.529 327.406H504.954" stroke="#205993" stroke-width="8.43455" stroke-miterlimit="10" stroke-linecap="round"/>
<path d="M346.672 290.364C341.935 291.375 333.986 295.97 327.288 300.376C323.191 303.07 318.708 306.237 313.822 309.704C309.245 312.949 304.314 316.455 299.014 320.082C288.819 318.401 281.699 308.118 280.371 300.858C277.134 283.148 289.114 274.006 289.114 274.006C289.114 274.006 293.795 272.556 295.347 272.049C308.425 267.78 320.187 264.521 336.279 262.657C345.366 261.604 347.287 262.678 351.032 264.365C357.095 267.095 363.163 270.784 361.402 276.631C359.958 281.425 355.276 274.32 349.979 280.074C345.322 285.132 347.496 290.188 346.672 290.364Z" fill="white"/>
<path d="M346.672 290.365C341.935 291.376 333.986 295.971 327.288 300.376C323.191 303.071 318.708 306.238 313.822 309.704C309.245 312.95 304.314 316.456 299.014 320.082C288.818 318.401 281.699 308.119 280.371 300.858C277.134 283.149 289.114 274.006 289.114 274.006C289.114 274.006 293.795 272.557 295.347 272.05C308.425 267.78 320.187 264.521 336.279 262.657C345.366 261.604 347.321 262.605 351.032 264.365C351.069 264.455 348.308 272.565 352.189 277.275C355.21 280.941 358.294 287.634 358.263 287.629C352.322 289.065 347.496 290.189 346.672 290.365Z" stroke="#232323" stroke-width="1.40576"/>
<path d="M349.469 263.592C356.446 264.428 365.951 276.403 365.172 278.976C362.244 288.659 350.317 288.663 344.423 289.505C331.55 291.344 332.049 278.735 333.119 274.183C334.667 267.594 344.06 262.607 349.469 263.592Z" fill="white"/>
<path d="M327.289 300.377C323.191 303.071 318.708 306.239 313.823 309.705C309.336 301.83 305.387 292.272 302.571 282.493C302.324 281.637 302.083 280.782 301.856 279.921C301.275 277.748 300.754 275.57 300.298 273.403C300.27 273.276 300.245 273.148 300.22 273.021C300.044 272.18 299.88 271.341 299.726 270.503C299.706 270.404 299.688 270.304 299.67 270.202L300.767 270.001L311.503 268.044L315.716 267.273C316.167 269.752 316.726 272.274 317.378 274.796C317.62 275.733 317.874 276.672 318.141 277.606C320.463 285.757 323.687 293.789 327.289 300.377Z" fill="#232323"/>
<path d="M304.96 263.002C312.286 260.363 319.716 262.374 321.555 267.494C323.394 272.614 318.945 278.904 311.619 281.544C304.293 284.183 296.863 282.172 295.024 277.052C293.185 271.932 297.634 265.641 304.96 263.002Z" fill="#232323"/>
<path d="M304.764 262.456C312.521 259.661 320.389 261.791 322.336 267.213C324.283 272.634 319.573 279.295 311.815 282.09C304.057 284.884 296.19 282.755 294.243 277.333C292.296 271.912 297.006 265.251 304.764 262.456Z" stroke="#232323" stroke-width="1.40576" stroke-miterlimit="10"/>
<path d="M304.923 262.875C312.035 260.313 319.079 261.796 320.656 266.186C322.233 270.577 317.746 276.213 310.634 278.776C303.522 281.338 296.478 279.855 294.901 275.465C293.324 271.074 297.811 265.438 304.923 262.875Z" fill="white"/>
<path d="M315.279 267.319L307.437 269.63L308.874 274.676" stroke="#232323" stroke-width="1.40576" stroke-linecap="round" stroke-linejoin="round"/>
<path d="M181.136 346.503C148.196 305.342 138.024 247.482 170.054 213.627C189.63 192.935 220.857 211.943 228.726 281.175C228.146 311.217 210.002 374.216 181.136 346.503Z" fill="white"/>
<path d="M182.095 347.47C163.926 327.377 138.183 276.074 156.761 234.362C175.864 191.473 202.974 200.665 217.569 234.959C223.419 248.705 228.689 272.81 228.692 281.012C228.695 289.215 227.526 305.974 221.416 321.548" stroke="#232323" stroke-width="1.40576" stroke-linecap="round" stroke-linejoin="round"/>
<path d="M299.018 320.081C283.854 330.453 265.676 341.781 244.147 350.68C193.898 371.449 178.476 343.135 178.476 343.135C166.624 316.562 236.157 291.216 241.422 289.021C252.413 285.475 289.118 274.005 289.118 274.005C289.118 274.005 288.66 301.658 299.018 320.081Z" fill="white"/>
<path d="M214.176 300.831C227.32 294.244 239.356 289.883 241.423 289.021C252.413 285.475 289.118 274.005 289.118 274.005C289.118 274.005 288.66 301.658 299.018 320.081C283.854 330.453 265.676 341.781 244.147 350.68C193.898 371.449 178.031 342.701 178.031 342.701" stroke="#232323" stroke-width="1.40576"/>
<path d="M228.701 293.841C226.634 304.584 223.164 314.918 217.941 323.886" stroke="#232323" stroke-width="1.40576" stroke-linecap="round" stroke-linejoin="round"/>
<path d="M289.09 274.082C276.193 277.823 254.689 284.231 240.478 289.48C234.498 291.689 228.71 293.928 228.71 293.928C231.312 311.941 226.477 329.209 226.477 329.209" stroke="#232323" stroke-width="1.40576" stroke-linecap="round" stroke-linejoin="round"/>
<path d="M269.253 280.094C268.057 293.509 270.377 318.68 279.59 332.717" stroke="#232323" stroke-width="1.40576" stroke-linejoin="round"/>
</svg>
