<svg width="96" height="96" viewBox="0 0 96 96" fill="none" xmlns="http://www.w3.org/2000/svg">
<path d="M88 32.0002V48.0001M41 22.0001H27.2C20.4794 22.0001 17.119 22.0001 14.5521 23.3081C12.2942 24.4585 10.4584 26.2943 9.30791 28.5523C7.99999 31.1192 8 34.4795 8 41.2001L8 46.0001C8.00001 49.7277 8.00001 51.5914 8.60897 53.0616C9.42093 55.0218 10.9783 56.5792 12.9385 57.3912C14.4087 58.0001 16.2725 58.0001 20 58.0001V75.0001C20 75.9288 20 76.3932 20.0385 76.7843C20.4126 80.5825 23.4177 83.5875 27.2159 83.9616C27.607 84.0001 28.0713 84.0001 29 84.0001C29.9287 84.0001 30.393 84.0001 30.7841 83.9616C34.5824 83.5875 37.5874 80.5825 37.9615 76.7843C38 76.3932 38 75.9288 38 75.0001V58.0001H41C48.0657 58.0001 56.709 61.7877 63.3772 65.4227C67.2673 67.5433 69.2124 68.6036 70.4863 68.4476C71.6676 68.3029 72.5608 67.7725 73.2533 66.8046C74 65.7607 74 63.6722 74 59.495V20.5053C74 16.3281 74 14.2395 73.2533 13.1957C72.5608 12.2277 71.6676 11.6973 70.4863 11.5527C69.2124 11.3966 67.2673 12.4569 63.3772 14.5776C56.709 18.2126 48.0657 22.0001 41 22.0001Z" stroke="#212B36" stroke-width="2" stroke-linecap="round" stroke-linejoin="round"/>
</svg>
