<svg width="96" height="96" viewBox="0 0 96 96" fill="none" xmlns="http://www.w3.org/2000/svg">
<path d="M48 8C58.0051 18.9534 63.691 33.1681 64 48C63.691 62.8319 58.0051 77.0466 48 88M48 8C37.9949 18.9534 32.309 33.1681 32 48C32.309 62.8319 37.9949 77.0466 48 88M48 8C25.9086 8 8 25.9086 8 48C8 70.0914 25.9086 88 48 88M48 8C70.0914 8 88 25.9086 88 48C88 70.0914 70.0914 88 48 88M10.0001 36H86.0001M10 60H86" stroke="#212B36" stroke-width="2" stroke-linecap="round" stroke-linejoin="round"/>
</svg>
