<svg width="40" height="38" viewBox="0 0 40 38" fill="none" xmlns="http://www.w3.org/2000/svg">
<path d="M18.1418 1.22469C18.8293 -0.408232 21.1708 -0.40823 21.8583 1.2247L25.9159 10.8625C26.2059 11.5509 26.8612 12.0213 27.6134 12.0808L38.1454 12.915C39.9299 13.0563 40.6535 15.2563 39.2939 16.4069L31.2696 23.1974C30.6965 23.6825 30.4461 24.4436 30.6212 25.1687L33.0728 35.3221C33.4881 37.0423 31.5939 38.4021 30.0661 37.4803L21.0491 32.0392C20.4051 31.6505 19.5951 31.6505 18.951 32.0392L9.93401 37.4803C8.40625 38.4021 6.51193 37.0423 6.92729 35.3221L9.37887 25.1687C9.55398 24.4436 9.30367 23.6825 8.73054 23.1974L0.706126 16.4069C-0.653438 15.2563 0.0701359 13.0563 1.85459 12.915L12.3867 12.0808C13.139 12.0213 13.7944 11.5509 14.0842 10.8625L18.1418 1.22469Z" fill="#212B36"/>
</svg>
