<svg width="24" height="25" viewBox="0 0 24 25" fill="none" xmlns="http://www.w3.org/2000/svg">
<path d="M16.5 6.59668H13.5C12.9477 6.59668 12.5 7.0444 12.5 7.59668V10.5967H16.5C16.6137 10.5942 16.7216 10.6471 16.7892 10.7386C16.8568 10.8301 16.8758 10.9487 16.84 11.0567L16.1 13.2567C16.0318 13.4586 15.8431 13.5951 15.63 13.5967H12.5V21.0967C12.5 21.3728 12.2761 21.5967 12 21.5967H9.5C9.22386 21.5967 9 21.3728 9 21.0967V13.5967H7.5C7.22386 13.5967 7 13.3728 7 13.0967V11.0967C7 10.8206 7.22386 10.5967 7.5 10.5967H9V7.59668C9 5.38754 10.7909 3.59668 13 3.59668H16.5C16.7761 3.59668 17 3.82054 17 4.09668V6.09668C17 6.37282 16.7761 6.59668 16.5 6.59668Z" fill="white"/>
</svg>
