<svg width="24" height="25" viewBox="0 0 24 25" fill="none" xmlns="http://www.w3.org/2000/svg">
<path fill-rule="evenodd" clip-rule="evenodd" d="M16 3.59668H8C5.23858 3.59668 3 5.83526 3 8.59668V16.5967C3 19.3581 5.23858 21.5967 8 21.5967H16C18.7614 21.5967 21 19.3581 21 16.5967V8.59668C21 5.83526 18.7614 3.59668 16 3.59668ZM19.25 16.5967C19.2445 18.3893 17.7926 19.8412 16 19.8467H8C6.20735 19.8412 4.75549 18.3893 4.75 16.5967V8.59668C4.75549 6.80403 6.20735 5.35217 8 5.34668H16C17.7926 5.35217 19.2445 6.80403 19.25 8.59668V16.5967ZM16.75 8.84668C17.3023 8.84668 17.75 8.39896 17.75 7.84668C17.75 7.2944 17.3023 6.84668 16.75 6.84668C16.1977 6.84668 15.75 7.2944 15.75 7.84668C15.75 8.39896 16.1977 8.84668 16.75 8.84668ZM12 8.09668C9.51472 8.09668 7.5 10.1114 7.5 12.5967C7.5 15.082 9.51472 17.0967 12 17.0967C14.4853 17.0967 16.5 15.082 16.5 12.5967C16.5027 11.4024 16.0294 10.2562 15.1849 9.41176C14.3404 8.56727 13.1943 8.09402 12 8.09668ZM9.25 12.5967C9.25 14.1155 10.4812 15.3467 12 15.3467C13.5188 15.3467 14.75 14.1155 14.75 12.5967C14.75 11.0779 13.5188 9.84668 12 9.84668C10.4812 9.84668 9.25 11.0779 9.25 12.5967Z" fill="white"/>
</svg>
