<svg width="24" height="25" viewBox="0 0 24 25" fill="none" xmlns="http://www.w3.org/2000/svg">
<path fill-rule="evenodd" clip-rule="evenodd" d="M5 3.59668H19C20.1046 3.59668 21 4.49211 21 5.59668V19.5967C21 20.7013 20.1046 21.5967 19 21.5967H5C3.89543 21.5967 3 20.7013 3 19.5967V5.59668C3 4.49211 3.89543 3.59668 5 3.59668ZM8 18.5967C8.27614 18.5967 8.5 18.3728 8.5 18.0967V11.0967C8.5 10.8206 8.27614 10.5967 8 10.5967H6.5C6.22386 10.5967 6 10.8206 6 11.0967V18.0967C6 18.3728 6.22386 18.5967 6.5 18.5967H8ZM7.25 9.59668C6.42157 9.59668 5.75 8.92511 5.75 8.09668C5.75 7.26825 6.42157 6.59668 7.25 6.59668C8.07843 6.59668 8.75 7.26825 8.75 8.09668C8.75 8.92511 8.07843 9.59668 7.25 9.59668ZM17.5 18.5967C17.7761 18.5967 18 18.3728 18 18.0967V13.4967C18.0325 11.9075 16.8576 10.5512 15.28 10.3567C14.177 10.2559 13.1083 10.7711 12.5 11.6967V11.0967C12.5 10.8206 12.2761 10.5967 12 10.5967H10.5C10.2239 10.5967 10 10.8206 10 11.0967V18.0967C10 18.3728 10.2239 18.5967 10.5 18.5967H12C12.2761 18.5967 12.5 18.3728 12.5 18.0967V14.3467C12.5 13.5183 13.1716 12.8467 14 12.8467C14.8284 12.8467 15.5 13.5183 15.5 14.3467V18.0967C15.5 18.3728 15.7239 18.5967 16 18.5967H17.5Z" fill="white"/>
</svg>
