<svg width="25" height="25" viewBox="0 0 25 25" fill="none" xmlns="http://www.w3.org/2000/svg">
<path d="M17.5 21.597C15.8463 21.5955 14.2183 21.1868 12.76 20.407L12.31 20.157C9.20075 18.4853 6.65169 15.9362 4.98 12.827L4.73 12.377C3.92982 10.9104 3.50713 9.26765 3.5 7.59695V6.92695C3.49958 6.39391 3.71196 5.88275 4.09 5.50695L5.78 3.81695C5.94413 3.65155 6.17581 3.57183 6.40696 3.60121C6.63811 3.63059 6.84248 3.76575 6.96 3.96695L9.21 7.82695C9.43753 8.21984 9.37183 8.71671 9.05 9.03695L7.16 10.927C7.00304 11.0822 6.96647 11.322 7.07 11.517L7.42 12.177C8.67704 14.5054 10.5893 16.4142 12.92 17.667L13.58 18.027C13.775 18.1305 14.0148 18.0939 14.17 17.937L16.06 16.047C16.3802 15.7252 16.8771 15.6595 17.27 15.887L21.13 18.137C21.3312 18.2545 21.4664 18.4589 21.4957 18.69C21.5251 18.9212 21.4454 19.1529 21.28 19.317L19.59 21.007C19.2142 21.385 18.703 21.5974 18.17 21.597H17.5Z" fill="white"/>
</svg>
