<svg width="24" height="25" viewBox="0 0 24 25" fill="none" xmlns="http://www.w3.org/2000/svg">
<path d="M20.9728 7.31408C20.5084 7.9336 19.947 8.47401 19.3103 8.91444C19.3103 9.07627 19.3103 9.2381 19.3103 9.40893C19.3154 12.3478 18.1415 15.1658 16.0518 17.2312C13.962 19.2966 11.1312 20.4366 8.19405 20.3956C6.49599 20.4013 4.81967 20.0136 3.29642 19.2628C3.21428 19.2269 3.16131 19.1457 3.16162 19.056V18.9571C3.16162 18.828 3.26623 18.7234 3.39527 18.7234C5.06442 18.6683 6.67402 18.0896 7.99634 17.0691C6.48553 17.0386 5.12619 16.1436 4.5006 14.7674C4.46901 14.6923 4.47884 14.606 4.52657 14.5399C4.57429 14.4738 4.653 14.4374 4.73425 14.4438C5.19342 14.4899 5.65718 14.4472 6.1002 14.3179C4.43239 13.9717 3.17921 12.5871 2.99986 10.8924C2.99349 10.8111 3.02992 10.7324 3.096 10.6846C3.16207 10.6369 3.24824 10.627 3.32338 10.6587C3.77094 10.8562 4.25409 10.9602 4.74324 10.9643C3.28184 10.0051 2.65061 8.18073 3.20655 6.5229C3.26394 6.36181 3.40181 6.2428 3.5695 6.20962C3.73718 6.17643 3.90996 6.23396 4.02432 6.36107C5.99639 8.45993 8.70604 9.71064 11.5819 9.84947C11.5083 9.55553 11.4721 9.25344 11.4741 8.9504C11.501 7.3614 12.4842 5.94589 13.9634 5.36655C15.4425 4.78722 17.1249 5.15871 18.223 6.30712C18.9714 6.16453 19.695 5.91313 20.3707 5.56089C20.4202 5.52999 20.483 5.52999 20.5325 5.56089C20.5634 5.61041 20.5634 5.6732 20.5325 5.72272C20.2052 6.4722 19.6523 7.1008 18.9509 7.52087C19.5651 7.44964 20.1685 7.30475 20.7482 7.08932C20.797 7.0561 20.8611 7.0561 20.9099 7.08932C20.9508 7.10802 20.9814 7.14379 20.9935 7.1871C21.0056 7.23041 20.998 7.27686 20.9728 7.31408Z" fill="white"/>
</svg>
