<svg width="100" height="40" viewBox="0 0 100 40" fill="none" xmlns="http://www.w3.org/2000/svg">
<path d="M35.4392 26.4624H38.4097V21.3703H39.7012L42.8561 26.4624H46.0295L42.5425 20.8537C44.0923 20.3924 45.2546 19.3408 45.2546 17.3482V17.2744C45.2546 14.5438 43.2805 13.2708 40.1624 13.2708H35.4392V26.4624ZM38.4097 19.3408V15.5586H40.0886C41.5277 15.5586 42.3396 16.0198 42.3396 17.3666V17.4404C42.3396 18.7135 41.5831 19.3408 40.0886 19.3408H38.4097Z" fill="black"/>
<path d="M51.1281 26.6654C53.7664 26.6654 55.4269 25.5031 55.7405 23.4182H53.2129C53.0468 24.23 52.438 24.7651 51.2019 24.7651C49.7443 24.7651 48.8772 23.8426 48.8034 22.2375H55.759V21.4995C55.759 18.0493 53.545 16.5918 51.0542 16.5918C48.2499 16.5918 46.0912 18.5659 46.0912 21.6102V21.7577C46.0912 24.8389 48.2129 26.6654 51.1281 26.6654ZM48.8402 20.5954C49.0432 19.2301 49.855 18.4368 51.0542 18.4368C52.3273 18.4368 53.0653 19.1379 53.1576 20.5954H48.8402Z" fill="black"/>
<path d="M57.0304 26.4626H59.6872V12.4407H57.0304V26.4626Z" fill="black"/>
<path d="M64.7844 26.6655C66.3712 26.6655 67.3487 25.9275 67.8469 24.9497V26.4625H70.5037V16.8132H67.8469V22.4774C67.8469 23.898 66.9612 24.5991 65.8362 24.5991C64.6925 24.5991 64.1569 23.9718 64.1569 22.6619V16.8132H61.5004V23.0309C61.5004 25.5585 62.9025 26.6655 64.7844 26.6655Z" fill="black"/>
<path d="M72.3175 26.4625H74.9931V20.7615C74.9931 19.4515 75.8231 18.7873 76.8563 18.7873C77.7975 18.7873 78.3694 19.3408 78.3694 20.577V26.4625H81.0263V20.7615C81.0263 19.4515 81.8563 18.7873 82.8894 18.7873C83.8488 18.7873 84.4025 19.3408 84.4025 20.577V26.4625H87.0594V20.2818C87.0594 17.7172 85.6756 16.5918 83.8856 16.5918C82.6681 16.5918 81.4138 17.1084 80.6388 18.2707C80.1775 17.1269 79.2181 16.5918 77.945 16.5918C76.5056 16.5918 75.4725 17.3851 74.9931 18.2892V16.8132H72.3175V26.4625Z" fill="black"/>
<path d="M93.2369 26.6654C95.8756 26.6654 97.5363 25.5031 97.8494 23.4182H95.3219C95.1556 24.23 94.5469 24.7651 93.3106 24.7651C91.8531 24.7651 90.9863 23.8426 90.9125 22.2375H97.8681V21.4995C97.8681 18.0493 95.6538 16.5918 93.1631 16.5918C90.3588 16.5918 88.2 18.5659 88.2 21.6102V21.7577C88.2 24.8389 90.3219 26.6654 93.2369 26.6654ZM90.9494 20.5954C91.1525 19.2301 91.9644 18.4368 93.1631 18.4368C94.4363 18.4368 95.1744 19.1379 95.2669 20.5954H90.9494Z" fill="black"/>
<path fill-rule="evenodd" clip-rule="evenodd" d="M25.2164 14.06L25.0371 13.7397C24.8057 13.3523 24.4794 13.0304 24.089 12.8044L15.4918 7.84594C15.1025 7.62013 14.6606 7.50081 14.2106 7.5H13.839C13.3889 7.50081 12.9471 7.62013 12.5577 7.84594L3.96062 12.8172C3.57237 13.0417 3.24986 13.3642 3.02531 13.7525L2.84594 14.0728C2.62011 14.4621 2.5008 14.904 2.5 15.354V25.2837C2.5008 25.7337 2.62011 26.1756 2.84594 26.5649L3.02531 26.8853C3.25566 27.269 3.57687 27.5902 3.96062 27.8206L12.5706 32.7789C12.9579 33.0094 13.4011 33.1291 13.8518 33.1249H14.2106C14.6606 33.1241 15.1025 33.0048 15.4918 32.7789L24.089 27.8078C24.4811 27.5883 24.8048 27.2646 25.0243 26.8724L25.2164 26.5521C25.4396 26.1617 25.5587 25.7205 25.5624 25.2709V15.3412C25.5616 14.8912 25.4423 14.4493 25.2164 14.06ZM13.839 10.0624H14.2106L21.7187 14.3931L14.0312 18.8261L6.34375 14.3931L13.839 10.0624ZM15.3124 29.9219L22.8077 25.5912L22.9999 25.2709V16.6097L15.3124 21.0556V29.9219Z" fill="black"/>
</svg>
