<svg width="100" height="40" viewBox="0 0 100 40" fill="none" xmlns="http://www.w3.org/2000/svg">
<path d="M33.1696 17.4613C33.1696 15.7553 31.5154 13.9456 28.6474 13.9456C25.4254 13.9456 21.8914 16.3043 21.3444 21.0177C20.7924 25.7829 23.7591 27.8886 26.7401 27.8886C29.72 27.8886 31.2887 26.7274 32.8819 25.1709C31.5063 23.4384 29.7322 24.2447 29.3967 24.4135C29.0256 24.5995 28.5386 24.8567 27.5493 24.8567C26.3944 24.8567 25.2231 24.3342 25.2231 22.1899C32.6064 21.4823 33.1696 19.1683 33.1696 17.4613ZM29.5106 17.747C29.4627 18.2726 29.2472 19.1826 25.5109 19.6828C26.2988 16.8848 27.8015 16.6774 28.4959 16.6774C29.1466 16.6774 29.5614 17.1817 29.5106 17.747ZM17.0052 18.2014C17.0052 18.2014 15.4171 23.1812 15.2941 23.5991C15.2514 23.1812 14.0893 14.2364 14.0893 14.2364C11.3849 14.2364 9.93812 16.1579 9.17562 18.1994C9.17562 18.1994 7.24388 23.1934 7.08731 23.6113C7.07819 23.2199 6.79044 18.2513 6.79044 18.2513C6.62675 15.7542 4.34734 14.2424 2.5 14.2424L4.72148 27.794C7.55906 27.7848 9.078 25.8663 9.87919 23.8289C9.87919 23.8289 11.5781 19.4225 11.6482 19.2222C11.6655 19.4134 12.8703 27.794 12.8703 27.794C15.7099 27.794 17.2421 25.9975 18.0666 24.0332L22.0511 14.2424C19.245 14.2424 17.7677 16.1589 17.0052 18.2014ZM43.5989 13.9272C41.8533 13.9272 40.5081 14.8759 39.3756 16.2779L39.3776 16.2677L40.3841 8.125C38.0599 8.125 36.1608 10.1482 35.7998 13.1495L34.0318 27.6882C35.3728 27.6882 36.7931 27.2989 37.5597 26.3137C38.246 27.1951 39.2658 27.8977 40.7755 27.8977C44.6949 27.8977 47.3891 23.3419 47.3891 19.0646C47.3891 15.1616 45.4899 13.9272 43.5989 13.9272ZM43.239 20.912C42.8323 23.3032 41.5035 24.9157 40.2163 24.9157C38.9191 24.9157 38.3711 24.3423 38.3711 24.3423C38.613 22.252 38.7736 20.9699 39.2464 19.8658C39.7182 18.7617 40.8335 16.9997 42.0006 16.9997C43.1352 16.9997 43.6457 18.5218 43.239 20.912ZM57.2145 14.2435H54.4704L54.4836 14.1001C54.6707 12.3087 55.0998 11.3682 56.4886 11.2239C57.4371 11.1263 57.8662 10.6332 57.9658 10.1004C58.0441 9.68256 58.3094 8.20531 58.3094 8.20531C52.8051 8.17381 51.0798 10.5498 50.6395 14.1611L50.6293 14.2424L50.5754 14.2445C49.6818 14.2445 48.7007 15.2561 48.5288 16.5412L48.4689 17.0139H50.2989L48.7627 29.7318L48.2971 32.0173L48.4861 32.0234C51.0553 31.9258 52.7085 29.8996 53.0735 26.9491L54.2732 17.0139H55.1333C55.9751 17.0139 56.9644 16.1701 57.1474 14.7599L57.2145 14.2435ZM71.4544 14.0076C68.2925 14.0076 65.3125 16.3348 64.3962 19.9959C63.4812 23.6561 64.8725 27.978 69.5194 27.978C74.1681 27.978 76.8388 23.473 76.8388 19.7326C76.8388 15.9901 74.3094 14.0076 71.4544 14.0076ZM72.7363 20.8032C72.5725 22.4634 71.8406 24.9716 69.84 24.9716C67.8306 24.9716 68.1162 22.0283 68.3106 20.6314C68.5194 19.1337 69.3606 17.0139 71.1513 17.0139C72.7688 17.0139 72.9212 18.9284 72.7363 20.8032ZM92.4531 18.2014C92.4531 18.2014 90.865 23.1812 90.7431 23.5991C90.6994 23.1812 89.5375 14.2364 89.5375 14.2364C86.8331 14.2364 85.3869 16.1579 84.6237 18.1994C84.6237 18.1994 82.6931 23.1934 82.5362 23.6113C82.5269 23.2199 82.2394 18.2513 82.2394 18.2513C82.0756 15.7542 79.795 14.2424 77.9488 14.2424L80.1694 27.794C83.0069 27.7848 84.5269 25.8663 85.3281 23.8289C85.3281 23.8289 87.0269 19.4225 87.0969 19.2222C87.1144 19.4134 88.3181 27.794 88.3181 27.794C91.1581 27.794 92.69 25.9975 93.5144 24.0332L97.5 14.2424C94.6931 14.2424 93.2156 16.1589 92.4531 18.2014ZM59.7969 8.20531L57.4931 26.7864L57.4869 26.7834L57.0192 29.0811L57.2074 29.0872C59.6881 29.0567 61.448 26.88 61.7794 24.1349L63.11 13.4697C63.5137 10.2214 61.5771 8.20531 59.7969 8.20531Z" fill="black"/>
</svg>
